<svg width="194" height="40" viewBox="0 0 194 40" fill="none" xmlns="http://www.w3.org/2000/svg">
<rect width="40" height="40" rx="20" transform="matrix(-1 0 0 1 40 0)" fill="#66C61C"/>
<rect x="7.56945" y="13.9015" width="24.6528" height="13.447" rx="6.72348" fill="#FAFEF5"/>
<circle cx="25.4987" cy="20.625" r="5.6029" fill="#66C61C"/>
<path d="M52.2222 10.0582V29.9419H59.9065C63.6364 29.9419 66.0483 27.6142 66.0483 24.389C66.0483 21.9211 64.4777 20.1543 62.5427 19.6775C64.1973 19.1166 65.4313 17.462 65.4313 15.4147C65.4313 12.3298 63.2438 10.0582 59.3736 10.0582H52.2222ZM56.0363 18.2753V13.3114H58.7566C60.6356 13.3114 61.6172 14.2649 61.6172 15.7793C61.6172 17.2937 60.5515 18.2753 58.7847 18.2753H56.0363ZM56.0363 26.7167V21.4724H59.2334C61.1685 21.4724 62.1781 22.5661 62.1781 24.1366C62.1781 25.7352 61.0563 26.7167 59.1773 26.7167H56.0363Z" fill="black"/>
<path d="M71.0154 21.4724C71.0996 20.2104 72.1653 18.752 74.1004 18.752C76.2318 18.752 77.1292 20.0982 77.1853 21.4724H71.0154ZM77.5499 25.0621C77.1011 26.2961 76.1476 27.1654 74.4088 27.1654C72.5579 27.1654 71.0154 25.8473 70.9313 24.0244H80.803C80.803 23.9683 80.8591 23.4074 80.8591 22.8746C80.8591 18.4435 78.3071 15.7232 74.0443 15.7232C70.5106 15.7232 67.2575 18.5838 67.2575 22.9868C67.2575 27.6422 70.5948 30.3625 74.3808 30.3625C77.7742 30.3625 79.9617 28.3714 80.6628 25.9876L77.5499 25.0621Z" fill="black"/>
<path d="M87.4663 12.0213H84.1009V13.9564C84.1009 15.1904 83.4278 16.1439 81.9695 16.1439H81.2684V19.4531H83.7644V25.8754C83.7644 28.5396 85.4471 30.1382 88.1393 30.1382C89.2331 30.1382 89.9062 29.9419 90.2427 29.8016V26.7167C90.0464 26.7728 89.5416 26.8289 89.0929 26.8289C88.0272 26.8289 87.4663 26.4363 87.4663 25.2304V19.4531H90.2427V16.1439H87.4663V12.0213Z" fill="black"/>
<path d="M96.9708 12.0213H93.6054V13.9564C93.6054 15.1904 92.9324 16.1439 91.474 16.1439H90.7729V19.4531H93.2689V25.8754C93.2689 28.5396 94.9516 30.1382 97.6439 30.1382C98.7376 30.1382 99.4107 29.9419 99.7472 29.8016V26.7167C99.5509 26.7728 99.0461 26.8289 98.5974 26.8289C97.5317 26.8289 96.9708 26.4363 96.9708 25.2304V19.4531H99.7472V16.1439H96.9708V12.0213Z" fill="black"/>
<path d="M104.431 21.4724C104.515 20.2104 105.581 18.752 107.516 18.752C109.648 18.752 110.545 20.0982 110.601 21.4724H104.431ZM110.966 25.0621C110.517 26.2961 109.564 27.1654 107.825 27.1654C105.974 27.1654 104.431 25.8473 104.347 24.0244H114.219C114.219 23.9683 114.275 23.4074 114.275 22.8746C114.275 18.4435 111.723 15.7232 107.46 15.7232C103.927 15.7232 100.673 18.5838 100.673 22.9868C100.673 27.6422 104.011 30.3625 107.797 30.3625C111.19 30.3625 113.378 28.3714 114.079 25.9876L110.966 25.0621Z" fill="black"/>
<path d="M124.581 16.0878C124.3 16.0597 124.02 16.0317 123.711 16.0317C122.534 16.0317 120.626 16.3682 119.785 18.1911V16.1439H116.167V29.9419H119.897V23.6318C119.897 20.6591 121.552 19.7336 123.459 19.7336C123.796 19.7336 124.16 19.7616 124.581 19.8458V16.0878Z" fill="black"/>
<path d="M129.648 29.9419V21.865C129.648 20.3506 130.602 19.1447 132.228 19.1447C133.911 19.1447 134.668 20.2664 134.668 21.7528V29.9419H138.37V21.865C138.37 20.3786 139.324 19.1447 140.922 19.1447C142.633 19.1447 143.362 20.2664 143.362 21.7528V29.9419H146.98V20.9956C146.98 17.2937 144.54 15.7513 141.988 15.7513C140.165 15.7513 138.707 16.3682 137.613 18.0509C136.912 16.5645 135.397 15.7513 133.518 15.7513C132.004 15.7513 130.237 16.4804 129.48 17.8266V16.1439H125.918V29.9419H129.648Z" fill="black"/>
<path d="M155.922 26.9691C154.099 26.9691 152.416 25.623 152.416 23.0429C152.416 20.4347 154.099 19.1166 155.922 19.1166C157.744 19.1166 159.427 20.4347 159.427 23.0429C159.427 25.651 157.744 26.9691 155.922 26.9691ZM155.922 15.7232C151.799 15.7232 148.686 18.7801 148.686 23.0429C148.686 27.2776 151.799 30.3625 155.922 30.3625C160.044 30.3625 163.157 27.2776 163.157 23.0429C163.157 18.7801 160.044 15.7232 155.922 15.7232Z" fill="black"/>
<path d="M178.352 9.63751H174.678V17.5181C174.285 16.7889 173.163 15.8073 170.78 15.8073C166.881 15.8073 164.161 18.9764 164.161 23.0148C164.161 27.1935 166.965 30.2784 170.892 30.2784C172.743 30.2784 174.145 29.4371 174.762 28.3433C174.762 28.9883 174.846 29.6614 174.902 29.9419H178.464C178.408 29.381 178.352 28.3714 178.352 27.4459V9.63751ZM167.919 23.0148C167.919 20.5469 169.433 19.1447 171.34 19.1447C173.247 19.1447 174.734 20.5188 174.734 22.9868C174.734 25.4828 173.247 26.9411 171.34 26.9411C169.377 26.9411 167.919 25.4828 167.919 23.0148Z" fill="black"/>
<path d="M183.997 21.4724C184.081 20.2104 185.147 18.752 187.082 18.752C189.213 18.752 190.111 20.0982 190.167 21.4724H183.997ZM190.532 25.0621C190.083 26.2961 189.129 27.1654 187.391 27.1654C185.54 27.1654 183.997 25.8473 183.913 24.0244H193.785C193.785 23.9683 193.841 23.4074 193.841 22.8746C193.841 18.4435 191.289 15.7232 187.026 15.7232C183.492 15.7232 180.239 18.5838 180.239 22.9868C180.239 27.6422 183.576 30.3625 187.363 30.3625C190.756 30.3625 192.943 28.3714 193.645 25.9876L190.532 25.0621Z" fill="black"/>
</svg>
